<svg width="54" height="49" viewBox="0 0 54 49" fill="none" xmlns="http://www.w3.org/2000/svg">
<path d="M7.49335 48.3945H45.9661C50.927 48.3945 53.4942 45.7927 53.4942 40.9359V7.49336C53.4942 2.60185 50.927 0 45.9661 0H7.49335C2.56716 0 0 2.56718 0 7.49336V40.9359C0 45.8621 2.56716 48.3945 7.49335 48.3945ZM7.42394 46.0355C4.09356 46.0355 2.35899 44.301 2.35899 40.9706V16.8601C2.35899 13.495 4.09356 11.7604 7.42394 11.7604H46.0355C49.2619 11.7604 51.1352 13.495 51.1352 16.8601V40.9706C51.1352 44.301 49.2619 46.0355 46.0355 46.0355H7.42394ZM21.2311 21.3352H22.8269C23.5902 21.3352 23.729 21.1618 23.729 20.4333V18.8375C23.729 18.1089 23.5902 17.9702 22.8269 17.9702H21.2311C20.5026 17.9702 20.3292 18.1089 20.3292 18.8375V20.4333C20.3292 21.1618 20.5026 21.3352 21.2311 21.3352ZM30.6326 21.3352H32.2284C32.9916 21.3352 33.1303 21.1618 33.1303 20.4333V18.8375C33.1303 18.1089 32.9916 17.9702 32.2284 17.9702H30.6326C29.8693 17.9702 29.7305 18.1089 29.7305 18.8375V20.4333C29.7305 21.1618 29.8693 21.3352 30.6326 21.3352ZM40.0339 21.3352H41.6297C42.3929 21.3352 42.5317 21.1618 42.5317 20.4333V18.8375C42.5317 18.1089 42.3929 17.9702 41.6297 17.9702H40.0339C39.2707 17.9702 39.132 18.1089 39.132 18.8375V20.4333C39.132 21.1618 39.2707 21.3352 40.0339 21.3352ZM11.8298 30.5632H13.4256C14.1888 30.5632 14.3275 30.4244 14.3275 29.6959V28.1001C14.3275 27.3715 14.1888 27.2328 13.4256 27.2328H11.8298C11.1012 27.2328 10.9278 27.3715 10.9278 28.1001V29.6959C10.9278 30.4244 11.1012 30.5632 11.8298 30.5632ZM21.2311 30.5632H22.8269C23.5902 30.5632 23.729 30.4244 23.729 29.6959V28.1001C23.729 27.3715 23.5902 27.2328 22.8269 27.2328H21.2311C20.5026 27.2328 20.3292 27.3715 20.3292 28.1001V29.6959C20.3292 30.4244 20.5026 30.5632 21.2311 30.5632ZM30.6326 30.5632H32.2284C32.9916 30.5632 33.1303 30.4244 33.1303 29.6959V28.1001C33.1303 27.3715 32.9916 27.2328 32.2284 27.2328H30.6326C29.8693 27.2328 29.7305 27.3715 29.7305 28.1001V29.6959C29.7305 30.4244 29.8693 30.5632 30.6326 30.5632ZM40.0339 30.5632H41.6297C42.3929 30.5632 42.5317 30.4244 42.5317 29.6959V28.1001C42.5317 27.3715 42.3929 27.2328 41.6297 27.2328H40.0339C39.2707 27.2328 39.132 27.3715 39.132 28.1001V29.6959C39.132 30.4244 39.2707 30.5632 40.0339 30.5632ZM11.8298 39.8258H13.4256C14.1888 39.8258 14.3275 39.687 14.3275 38.9585V37.3627C14.3275 36.6341 14.1888 36.4954 13.4256 36.4954H11.8298C11.1012 36.4954 10.9278 36.6341 10.9278 37.3627V38.9585C10.9278 39.687 11.1012 39.8258 11.8298 39.8258ZM21.2311 39.8258H22.8269C23.5902 39.8258 23.729 39.687 23.729 38.9585V37.3627C23.729 36.6341 23.5902 36.4954 22.8269 36.4954H21.2311C20.5026 36.4954 20.3292 36.6341 20.3292 37.3627V38.9585C20.3292 39.687 20.5026 39.8258 21.2311 39.8258ZM30.6326 39.8258H32.2284C32.9916 39.8258 33.1303 39.687 33.1303 38.9585V37.3627C33.1303 36.6341 32.9916 36.4954 32.2284 36.4954H30.6326C29.8693 36.4954 29.7305 36.6341 29.7305 37.3627V38.9585C29.7305 39.687 29.8693 39.8258 30.6326 39.8258Z" fill="white"/>
</svg>
