<svg width="64" height="49" viewBox="0 0 64 49" fill="none" xmlns="http://www.w3.org/2000/svg">
<path d="M7.49335 48.3945H55.7144C60.6406 48.3945 63.2078 45.7927 63.2078 40.9359V7.49336C63.2078 2.60185 60.6406 0 55.7144 0H7.49335C2.56716 0 0 2.56718 0 7.49336V40.9359C0 45.8621 2.56716 48.3945 7.49335 48.3945ZM2.35899 7.59745C2.35899 4.16299 4.16297 2.35901 7.56277 2.35901H55.645C58.9407 2.35901 60.8488 4.16299 60.8488 7.59745V39.9992L44.9948 25.4288C43.6071 24.3187 42.3235 23.5901 40.6584 23.5901C39.0279 23.5901 37.7443 24.1799 36.426 25.3941L23.9718 36.4954L18.768 31.6733C17.6232 30.6326 16.4784 30.0428 15.0561 30.0428C13.7031 30.0428 12.6971 30.5978 11.5523 31.6386L2.35899 40.242V7.59745ZM19.7047 24.6656C23.2085 24.6656 26.088 21.7862 26.088 18.2477C26.088 14.7439 23.2085 11.8298 19.7047 11.8298C16.1662 11.8298 13.2868 14.7439 13.2868 18.2477C13.2868 21.7862 16.1662 24.6656 19.7047 24.6656Z" fill="white"/>
</svg>
