<svg width="60" height="60" viewBox="0 0 60 60" fill="none" xmlns="http://www.w3.org/2000/svg">
<path d="M25.9925 57.7136C28.7332 60.4195 30.9881 60.4195 33.7288 57.7136L38.4814 52.9608C38.9671 52.4751 39.4181 52.3364 40.0772 52.3364H46.7727C50.6581 52.3364 52.2886 50.7059 52.2886 46.8204V40.125C52.2886 39.4659 52.4621 39.0149 52.9478 38.5292L57.6658 33.7764C60.4064 31.0012 60.3718 28.7809 57.6658 26.0056L52.9478 21.2529C52.4621 20.7672 52.2886 20.3162 52.2886 19.6571V12.9616C52.2886 9.07616 50.6581 7.44568 46.7727 7.44568H40.0772C39.4181 7.44568 38.9671 7.30692 38.4814 6.82124L33.7288 2.06848C30.9534 -0.67213 28.7332 -0.706801 25.9579 2.06848L21.2399 6.82124C20.7542 7.27225 20.2685 7.44568 19.644 7.44568H12.9486C9.0284 7.44568 7.43267 9.07616 7.43267 12.9616V19.6571C7.43267 20.3162 7.2245 20.7672 6.77348 21.2529L2.05547 26.0056C-0.685155 28.7809 -0.685155 31.0012 2.05547 33.7764L6.77348 38.5292C7.2245 39.0149 7.43267 39.4659 7.43267 40.125V46.8204C7.43267 50.7059 9.0284 52.3364 12.9486 52.3364H19.644C20.2685 52.3364 20.7542 52.4751 21.2399 52.9608L25.9925 57.7136ZM27.623 56.0484L22.3152 50.7406C21.7949 50.2202 21.2399 49.9774 20.4766 49.9774H12.9486C10.3814 49.9774 9.75693 49.3876 9.75693 46.8204V39.2577C9.75693 38.5292 9.51409 37.9741 8.99373 37.4537L3.68595 32.1113C1.84732 30.3073 1.84732 29.4748 3.68595 27.6708L8.99373 22.3283C9.51409 21.8079 9.75693 21.2529 9.75693 20.5243V12.9616C9.75693 10.3598 10.3467 9.80469 12.9486 9.80469H20.4766C21.2399 9.80469 21.7949 9.56184 22.3152 9.04149L27.623 3.7337C29.4617 1.89505 30.2596 1.89505 32.0983 3.7337L37.4061 9.04149C37.9264 9.56184 38.4814 9.80469 39.21 9.80469H46.7727C49.3398 9.80469 49.9643 10.3945 49.9643 12.9616V20.5243C49.9643 21.2529 50.1725 21.8079 50.6928 22.3283L56.0353 27.6708C57.8393 29.4748 57.8393 30.3073 56.0353 32.1113L50.6928 37.4537C50.1725 37.9741 49.9643 38.5292 49.9643 39.2577V46.8204C49.9643 49.3876 49.3398 49.9774 46.7727 49.9774H39.21C38.4814 49.9774 37.9264 50.2202 37.4061 50.7406L32.0983 56.0484C30.2596 57.887 29.4617 57.887 27.623 56.0484ZM25.3681 42.8309C25.8191 42.8309 26.2007 42.6228 26.4088 42.3106L42.6098 19.4142C42.7832 19.206 42.8873 18.8939 42.8873 18.6163C42.8873 17.9225 42.3322 17.4021 41.6384 17.4021C41.118 17.4021 40.8404 17.6102 40.5976 17.9572L25.3334 39.5352L17.1115 30.238C16.8687 29.9604 16.5565 29.8216 16.1748 29.8216C15.4464 29.8216 14.8913 30.3767 14.8913 31.0705C14.8913 31.3828 14.9954 31.6603 15.2729 31.9725L24.3967 42.3799C24.6396 42.6574 24.9518 42.8309 25.3681 42.8309Z" fill="white"/>
</svg>
